<?xml version="1.0" standalone="no"?>
<!DOCTYPE svg PUBLIC "-//W3C//DTD SVG 20010904//EN"
 "http://www.w3.org/TR/2001/REC-SVG-20010904/DTD/svg10.dtd">
<svg version="1.0" xmlns="http://www.w3.org/2000/svg"
 width="200.000000pt" height="200.000000pt" viewBox="0 0 200.000000 200.000000"
 preserveAspectRatio="xMidYMid meet">

<g transform="translate(0.000000,200.000000) scale(0.100000,-0.100000)"
fill="#000000" stroke="none">
<path d="M170 1190 c0 -19 7 -20 175 -20 168 0 175 1 175 20 0 19 -7 20 -175
20 -168 0 -175 -1 -175 -20z"/>
<path d="M613 1088 c-34 -9 -63 -49 -63 -88 0 -12 13 -35 29 -51 39 -38 87
-39 130 -3 76 64 5 169 -96 142z m68 -66 c12 -32 -23 -67 -51 -52 -22 12 -26
50 -8 68 19 19 50 10 59 -16z"/>
<path d="M170 1005 l0 -85 58 0 c36 0 66 6 80 16 23 16 30 48 12 59 -5 3 -7
19 -3 35 9 47 -10 60 -83 60 l-64 0 0 -85z m100 35 c0 -5 -11 -10 -25 -10 -14
0 -25 5 -25 10 0 6 11 10 25 10 14 0 25 -4 25 -10z m1 -65 c0 -5 -12 -11 -26
-13 -18 -2 -25 1 -25 13 0 12 7 15 25 13 14 -2 26 -7 26 -13z"/>
<path d="M375 1065 c-44 -43 -31 -112 24 -135 81 -33 168 41 130 112 -19 36
-40 47 -87 48 -32 0 -49 -6 -67 -25z m95 -30 c16 -19 5 -61 -17 -69 -10 -4
-24 1 -37 13 -17 17 -18 24 -8 46 13 28 43 33 62 10z"/>
<path d="M762 1008 c3 -82 3 -83 31 -86 23 -3 27 0 27 22 0 36 13 39 35 5 14
-20 28 -29 48 -29 34 0 34 7 -4 59 l-32 42 34 35 33 34 -29 0 c-18 0 -40 -10
-57 -27 l-28 -27 0 27 c0 23 -4 27 -30 27 l-31 0 3 -82z"/>
<path d="M1027 1038 c29 -99 40 -118 68 -118 19 0 28 7 36 28 5 15 12 34 15
42 4 10 12 0 21 -28 14 -39 18 -43 45 -40 28 3 32 8 54 78 29 92 29 90 -1 90
-20 0 -26 -7 -36 -40 -7 -22 -16 -40 -20 -40 -4 0 -11 17 -16 38 -8 32 -13 37
-38 37 -25 0 -30 -6 -44 -45 l-15 -45 -14 48 c-12 42 -16 47 -42 47 l-29 0 16
-52z"/>
<path d="M1324 1014 c-19 -41 -34 -79 -34 -85 0 -15 50 -10 56 6 4 9 19 15 39
15 20 0 35 -6 39 -15 5 -15 56 -22 56 -7 0 4 -14 42 -32 84 -30 71 -36 78 -61
78 -25 0 -32 -8 -63 -76z m76 -16 c0 -5 -7 -8 -15 -8 -17 0 -18 2 -9 25 5 13
8 14 15 3 5 -7 9 -16 9 -20z"/>
<path d="M1500 1005 l0 -85 94 0 c74 0 95 3 100 15 3 9 18 15 40 15 21 0 36
-6 40 -15 4 -13 56 -23 56 -11 0 2 -15 39 -33 83 -31 70 -37 78 -64 81 -28 3
-31 -1 -58 -65 -31 -75 -45 -97 -45 -70 0 13 -9 17 -40 17 l-40 0 0 60 c0 57
-1 60 -25 60 -25 0 -25 -1 -25 -85z m238 -14 c-15 -5 -21 7 -13 26 7 17 8 17
15 -2 4 -11 3 -22 -2 -24z"/>
<path d="M170 826 c0 -33 2 -36 30 -36 27 0 30 3 27 33 -2 27 -7 33 -30 35
-25 3 -27 1 -27 -32z m40 14 c0 -5 -7 -10 -15 -10 -8 0 -15 5 -15 10 0 6 7 10
15 10 8 0 15 -4 15 -10z m5 -30 c3 -5 -3 -10 -14 -10 -12 0 -21 5 -21 10 0 6
6 10 14 10 8 0 18 -4 21 -10z"/>
<path d="M400 825 c0 -19 5 -35 10 -35 6 0 10 5 10 12 0 9 3 9 12 0 18 -18 33
-15 17 4 -10 13 -10 17 2 26 11 7 9 9 -8 5 -16 -3 -23 0 -23 9 0 8 -4 14 -10
14 -5 0 -10 -16 -10 -35z"/>
<path d="M514 849 c-4 -7 4 -20 17 -30 l24 -19 -25 0 c-23 -1 -23 -2 -6 -11
14 -9 22 -8 33 4 17 17 10 37 -13 37 -20 0 -18 18 4 23 13 4 12 5 -5 6 -12 0
-25 -4 -29 -10z"/>
<path d="M589 849 c-4 -44 12 -81 25 -60 4 6 2 11 -3 11 -14 0 -14 27 0 32 7
2 5 9 -5 17 -13 11 -16 11 -17 0z"/>
<path d="M254 825 c-4 -9 -2 -21 4 -27 16 -16 47 -5 47 17 0 26 -42 34 -51 10z
m36 -10 c0 -8 -4 -15 -9 -15 -13 0 -22 16 -14 24 11 11 23 6 23 -9z"/>
<path d="M326 824 c-8 -22 -8 -22 13 -34 23 -12 54 12 45 35 -8 20 -50 19 -58
-1z m44 -9 c0 -8 -7 -15 -15 -15 -8 0 -15 7 -15 15 0 8 7 15 15 15 8 0 15 -7
15 -15z"/>
<path d="M634 825 c-8 -21 4 -35 32 -35 19 0 24 5 24 25 0 20 -5 25 -25 25
-14 0 -28 -7 -31 -15z m38 -10 c0 -5 -5 -11 -11 -13 -6 -2 -11 4 -11 13 0 9 5
15 11 13 6 -2 11 -8 11 -13z"/>
<path d="M710 815 c0 -14 5 -25 10 -25 6 0 10 9 10 19 0 11 6 22 13 24 6 3 2
6 -10 6 -18 1 -23 -5 -23 -24z"/>
<path d="M760 816 c0 -26 19 -39 40 -26 10 6 8 9 -6 13 -16 4 -16 5 3 6 31 1
18 31 -13 31 -19 0 -24 -5 -24 -24z m37 8 c-3 -3 -12 -4 -19 -1 -8 3 -5 6 6 6
11 1 17 -2 13 -5z"/>
</g>
</svg>
